HIERARCHY
ROOT RootJoint
{
    OFFSET   0.000000   0.000000   0.000000
    CHANNELS 6 Xposition Yposition Zposition Xrotation Yrotation Zrotation
    JOINT pelvis_lowerback
    {
        OFFSET   0.000000   0.093605   0.000000
        CHANNELS 3 Xrotation Yrotation Zrotation
        JOINT lowerback_torso
        {
            OFFSET   0.000000   0.100000   0.000000
            CHANNELS 3 Xrotation Yrotation Zrotation
            JOINT torso_head
            {
                OFFSET   0.000000   0.282350   0.000000
                CHANNELS 3 Xrotation Yrotation Zrotation
                End Site
                {
                    OFFSET   0.000000   0.192650   0.000000
                }
            }
            JOINT rTorso_Clavicle
            {
                OFFSET  -0.001000   0.157500   0.000000
                CHANNELS 3 Xrotation Yrotation Zrotation
                JOINT rShoulder
                {
                    OFFSET  -0.117647   0.000000   0.000000
                    CHANNELS 3 Xrotation Yrotation Zrotation
                    JOINT rElbow
                    {
                        OFFSET  -0.245000   0.000000   0.000000
                        CHANNELS 3 Xrotation Yrotation Zrotation
                        JOINT rWrist
                        {
                            OFFSET  -0.240000   0.000000   0.000000
                            CHANNELS 3 Xrotation Yrotation Zrotation
                            End Site
                            {
                                OFFSET  -0.116353  -0.002500   0.000000
                            }
                        }
                    }
                }
            }
            JOINT lTorso_Clavicle
            {
                OFFSET   0.001000   0.157500   0.000000
                CHANNELS 3 Xrotation Yrotation Zrotation
                JOINT lShoulder
                {
                    OFFSET   0.117647   0.000000   0.000000
                    CHANNELS 3 Xrotation Yrotation Zrotation
                    JOINT lElbow
                    {
                        OFFSET   0.245000   0.000000   0.000000
                        CHANNELS 3 Xrotation Yrotation Zrotation
                        JOINT lWrist
                        {
                            OFFSET   0.240000   0.000000   0.000000
                            CHANNELS 3 Xrotation Yrotation Zrotation
                            End Site
                            {
                                OFFSET   0.116353  -0.002500   0.000000
                            }
                        }
                    }
                }
            }
        }
    }
    JOINT rHip
    {
        OFFSET  -0.100000  -0.051395   0.000000
        CHANNELS 3 Xrotation Yrotation Zrotation
        JOINT rKnee
        {
            OFFSET   0.000000  -0.410000   0.000000
            CHANNELS 3 Xrotation Yrotation Zrotation
            JOINT rAnkle
            {
                OFFSET   0.000000  -0.390000   0.000000
                CHANNELS 3 Xrotation Yrotation Zrotation
                JOINT rToeJoint
                {
                    OFFSET   0.000000  -0.050000   0.130000
                    CHANNELS 3 Xrotation Yrotation Zrotation
                    End Site
                    {
                        OFFSET  -0.010000   0.002000   0.060000
                    }
                }
            }
        }
    }
    JOINT lHip
    {
        OFFSET   0.100000  -0.051395   0.000000
        CHANNELS 3 Xrotation Yrotation Zrotation
        JOINT lKnee
        {
            OFFSET   0.000000  -0.410000   0.000000
            CHANNELS 3 Xrotation Yrotation Zrotation
            JOINT lAnkle
            {
                OFFSET   0.000000  -0.390000   0.000000
                CHANNELS 3 Xrotation Yrotation Zrotation
                JOINT lToeJoint
                {
                    OFFSET   0.000000  -0.050000   0.130000
                    CHANNELS 3 Xrotation Yrotation Zrotation
                    End Site
                    {
                        OFFSET   0.010000   0.002000   0.060000
                    }
                }
            }
        }
    }
}
MOTION
Frames: 17
Frame Time:   0.008333
 -2.166336   0.919252   5.180881   3.520195   7.657483  -1.696725  -0.593141   2.122070  -2.558252   1.136174   0.090220   3.350092  -0.395895   1.288708   2.333344   3.554747  -0.358788   7.829325   9.003322  17.815447  50.495828  -0.001109  19.388661  -0.004715   7.246300   2.104158   6.791125  -0.069435   1.032576  -3.783424   5.118297 -13.438657 -48.837398  -0.014535 -23.883307  -0.011672   6.328990  -4.367995  -2.353980  -7.665572   0.177336  -6.481519  70.403817   0.006237   0.001973   6.464382   3.899609  10.084072  -2.132240  -0.001404  -0.004203  -9.124476  -6.883793  -2.295694  12.528506   0.000127   0.000564  -7.323581   0.350244   8.518192   0.496526  -0.000010  -0.000002
 -2.165013   0.919268   5.185327   3.417440   8.046934  -1.791273  -0.428475   1.996349  -2.444571   1.036761   0.092380   3.408303  -0.309826   1.268376   2.347850   3.451062  -0.275357   7.904362   8.815429  17.844129  50.335612  -0.001170  19.637363  -0.004090   7.268314   2.192158   6.710999  -0.135621   0.890134  -3.790969   4.882012 -13.711251 -48.582371  -0.013357 -24.323992  -0.009824   6.378712  -4.395791  -2.191623  -8.571941   0.095983  -6.395365  71.392209   0.006567   0.002285   5.731653   3.446743  10.067714  -1.997277  -0.000829  -0.003623  -8.742563  -6.955834  -2.247344  12.592630   0.000160   0.000631  -7.617940  -0.009901   8.491095   0.475988  -0.000024   0.000004
 -2.163713   0.919291   5.189639   3.294448   8.417825  -1.885952  -0.235572   1.865911  -2.324675   0.958101   0.084822   3.471541  -0.224786   1.249227   2.364133   3.335550  -0.184985   7.966231   8.627028  17.877387  50.174227  -0.001206  19.873561  -0.003544   7.285248   2.292207   6.592520  -0.211309   0.735720  -3.796892   4.649937 -13.979417 -48.343453  -0.012199 -24.739468  -0.008119   6.432997  -4.421678  -2.048859  -9.517623   0.034613  -6.316470  72.276760   0.006677   0.002378   5.041944   3.022244  10.046567  -1.907122  -0.000466  -0.003042  -8.343081  -7.053508  -2.184714  12.645827   0.000170   0.000634  -7.898332  -0.377161   8.461868   0.457383  -0.000032   0.000016
 -2.162426   0.919312   5.193905   3.147851   8.776910  -1.969481  -0.031734   1.734029  -2.209299   0.900574   0.069242   3.534556  -0.140541   1.231093   2.380814   3.222502  -0.096873   8.019809   8.447583  17.910954  50.019986  -0.001206  20.095595  -0.003065   7.300787   2.396463   6.462775  -0.290296   0.580169  -3.800693   4.426603 -14.237294 -48.120157  -0.011100 -25.130429  -0.006660   6.485507  -4.458705  -1.912765 -10.470482  -0.012745  -6.253751  73.070723   0.006632   0.002343   4.396463   2.626054  10.021978  -1.831471  -0.000206  -0.002531  -7.926634  -7.164374  -2.122963  12.705705   0.000179   0.000639  -8.165792  -0.739140   8.429452   0.418252  -0.000052   0.000049
 -2.161153   0.919329   5.198174   2.980451   9.134339  -2.040956   0.172309   1.600335  -2.099814   0.858983   0.045336   3.595348  -0.058798   1.213904   2.397044   3.118814  -0.016443   8.068650   8.281826  17.941349  49.875313  -0.001174  20.302225  -0.002643   7.316040   2.495355   6.335357  -0.368464   0.428421  -3.803723   4.214717 -14.482661 -47.912139  -0.010076 -25.497183  -0.005469   6.536036  -4.503505  -1.782275 -11.412699  -0.050453  -6.203998  73.786548   0.006511   0.002275   3.792713   2.256380   9.994886  -1.766508  -0.000021  -0.002089  -7.496278  -7.276228  -2.066377  12.779192   0.000195   0.000669  -8.421062  -1.085663   8.393284   0.348357  -0.000091   0.000099
 -2.159894   0.919345   5.202473   2.796497   9.499967  -2.101598   0.369614   1.464270  -1.996153   0.828519   0.012691   3.653325   0.019118   1.197569   2.412555   3.027549   0.053775   8.114491   8.131684  17.966804  49.740874  -0.001119  20.493244  -0.002278   7.331564   2.582829   6.216339  -0.443812   0.282538  -3.807069   4.015132 -14.714946 -47.719110  -0.009135 -25.840622  -0.004538   6.584659  -4.552530  -1.658527 -12.333097  -0.081693  -6.163006  74.435131   0.006372   0.002227   3.228181   1.911513   9.966063  -1.710195   0.000113  -0.001709  -7.055305  -7.382298  -2.015947  12.867700   0.000222   0.000734  -8.663975  -1.411652   8.354071   0.243420  -0.000151   0.000143
 -2.158654   0.919361   5.206812   2.600169   9.879575  -2.152719   0.555949   1.326615  -1.898172   0.805357  -0.027969   3.708215   0.092447   1.182059   2.427269   2.949389   0.113229   8.158118   7.997282  17.986787  49.616504  -0.001049  20.669157  -0.001969   7.347583   2.656206   6.108062  -0.515401   0.143442  -3.811348   3.827862 -14.934232 -47.540526  -0.008284 -26.161930  -0.003838   6.631418  -4.603772  -1.542277 -13.224784  -0.107921  -6.127895  75.025675   0.006244   0.002214   2.700463   1.589825   9.936115  -1.661064   0.000209  -0.001384  -6.606814  -7.481500  -1.970954  12.970254   0.000258   0.000833  -8.894061  -1.717457   8.313017   0.102590  -0.000231   0.000156
 -2.157437   0.919297   5.211048   2.425317  10.229933  -2.252555   0.752306   1.197159  -1.764465   0.765138  -0.063858   3.797752   0.150765   1.200459   2.443615   2.849020   0.146003   8.216889   7.868847  17.969012  49.447736  -0.000939  20.757428  -0.001591   7.363702   2.788613   6.013068  -0.574230  -0.007820  -3.877218   3.709970 -15.292515 -47.307993  -0.006992 -26.327442  -0.002884   6.717125  -4.654527  -1.412276 -14.114614  -0.039154  -6.026982  75.210708   0.005478   0.001961   2.052112   1.213625   9.862003  -1.627062   0.000284  -0.001099  -6.198814  -7.537267  -1.859377  13.122084   0.000310   0.001060  -9.199773  -2.094294   8.228455   0.047235  -0.000240   0.000161
 -2.156266   0.918770   5.215280   2.238429  10.531408  -2.385041   0.954231   1.077618  -1.608381   0.738427  -0.098509   3.899786   0.206275   1.219932   2.464132   2.754659   0.174482   8.247297   7.751137  17.949253  49.279834  -0.000858  20.838246  -0.001268   7.379385   2.904435   5.916629  -0.630610  -0.155976  -3.926957   3.600009 -15.631723 -47.091717  -0.005905 -26.481285  -0.002091   6.804575  -4.680778  -1.318258 -15.017375   0.050538  -5.912379  75.272866   0.004541   0.001609   1.438727   0.861199   9.787963  -1.621475   0.000243  -0.000878  -5.761848  -7.607996  -1.681485  13.309798   0.000323   0.001243  -9.330473  -2.461653   8.193056  -1.906573  -0.001098   0.002818
 -2.155016   0.918393   5.219414   2.052184  10.854480  -2.418117   1.168299   0.941066  -1.530610   0.725500  -0.149662   3.969541   0.256847   1.237127   2.483445   2.669215   0.200040   8.302908   7.643861  17.927418  49.122854  -0.000754  20.908078  -0.001015   7.397565   2.986011   5.795878  -0.689449  -0.305837  -3.998359   3.493874 -15.951494 -46.887765  -0.004940 -26.621324  -0.001466   6.890299  -4.685484  -1.214868 -15.926555   0.164890  -5.910528  75.248842   0.003572   0.001259   0.863713   0.531964   9.715048  -1.617329   0.000206  -0.000700  -5.346794  -7.672991  -1.626562  13.473871   0.000362   0.001354  -9.816683  -2.813197   8.051130  -1.395631  -0.000113   0.001955
 -2.153779   0.918101   5.223533   1.856046  11.213101  -2.432523   1.386987   0.792138  -1.457019   0.731016  -0.216629   4.026962   0.306412   1.252556   2.500140   2.598091   0.217042   8.357313   7.549901  17.903154  48.980442  -0.000648  20.970866  -0.000822   7.416074   3.050642   5.687889  -0.747446  -0.455573  -4.076972   3.390387 -16.257538 -46.708479  -0.004115 -26.754619  -0.000985   6.972379  -4.697562  -1.130611 -16.815013   0.280644  -5.914053  75.183124   0.002670   0.000930   0.324959   0.224621   9.643854  -1.616734   0.000165  -0.000560  -4.938296  -7.716745  -1.594771  13.652045   0.000431   0.001553 -10.210331  -3.128124   7.926068  -1.093040   0.000336   0.001581
 -2.152579   0.917826   5.227672   1.650960  11.582289  -2.442699   1.602494   0.644887  -1.382247   0.749946  -0.288931   4.080246   0.354873   1.267024   2.515946   2.540195   0.226158   8.406999   7.468808  17.876243  48.849654  -0.000550  21.027060  -0.000672   7.435029   3.101213   5.597864  -0.801874  -0.599357  -4.156084   3.292487 -16.547329 -46.548635  -0.003426 -26.880973  -0.000628   7.050763  -4.720202  -1.065736 -17.683017   0.396569  -5.908256  75.104238   0.001907   0.000640  -0.179276  -0.061808   9.574804  -1.619487   0.000120  -0.000453  -4.522050  -7.772555  -1.559141  13.829126   0.000481   0.001706 -10.570349  -3.439233   7.809654  -0.889554   0.000534   0.001268
 -2.151411   0.917558   5.231847   1.439033  11.955955  -2.445590   1.810808   0.501507  -1.311243   0.777795  -0.363023   4.129391   0.401408   1.280575   2.531019   2.493752   0.228518   8.453927   7.399202  17.846926  48.728910  -0.000463  21.076908  -0.000555   7.454490   3.137351   5.521655  -0.851502  -0.734629  -4.234342   3.201764 -16.819318 -46.403847  -0.002854 -26.999394  -0.000376   7.125804  -4.746970  -1.014089 -18.524994   0.509585  -5.899371  75.020261   0.001283   0.000393  -0.650933  -0.328579   9.508278  -1.624468   0.000078  -0.000370  -4.101309  -7.834610  -1.523336  14.010459   0.000522   0.001836 -10.902952  -3.740764   7.698360  -0.773205   0.000572   0.001019
 -2.150237   0.917444   5.236104   1.241054  12.345345  -2.514353   2.025875   0.361709  -1.189291   0.767069  -0.435399   4.225412   0.433785   1.308602   2.524678   2.442131   0.199328   8.552478   7.392537  17.768758  48.502584  -0.000298  20.968469  -0.000432   7.474280   3.281606   5.481391  -0.879054  -0.885509  -4.389893   3.216663 -17.202742 -46.216068  -0.002281 -26.932418  -0.000468   7.234269  -4.834328  -0.972991 -19.209378   0.653194  -5.808146  74.220850  -0.001788  -0.001174  -1.031691  -0.638325   9.406769  -1.631957   0.000030  -0.000314  -3.689646  -7.855381  -1.401574  14.201617   0.000556   0.002073 -11.185041  -4.106776   7.511756  -0.769930   0.000463   0.000815
 -2.149065   0.917280   5.240323   1.057275  12.714172  -2.568105   2.238006   0.231800  -1.083629   0.760582  -0.506146   4.314687   0.457369   1.336309   2.521940   2.405442   0.162040   8.634069   7.399056  17.683402  48.281773  -0.000165  20.856574  -0.000326   7.498282   3.362280   5.441777  -0.895465  -1.026263  -4.539100   3.239762 -17.558409 -46.045893  -0.001840 -26.862701  -0.000548   7.343204  -4.872554  -0.982130 -19.889152   0.818749  -5.742376  73.263574  -0.004786  -0.002702  -1.395257  -0.929287   9.308644  -1.640254  -0.000010  -0.000274  -3.296712  -7.871911  -1.294595  14.392726   0.000581   0.002231 -11.459720  -4.453158   7.330134  -0.801692   0.000315   0.000653
 -2.147919   0.917052   5.244519   0.872994  13.071390  -2.603103   2.452971   0.106145  -0.993665   0.768519  -0.576319   4.391595   0.479385   1.362188   2.520035   2.379032   0.119713   8.704015   7.412601  17.596732  48.071624  -0.000064  20.747877  -0.000234   7.524149   3.409408   5.403258  -0.906536  -1.155342  -4.679552   3.266174 -17.887937 -45.887843  -0.001497 -26.795424  -0.000600   7.448080  -4.891788  -1.007534 -20.567985   0.988621  -5.699186  72.294374  -0.007097  -0.003947  -1.738238  -1.201047   9.215319  -1.651445  -0.000051  -0.000250  -2.906982  -7.891184  -1.201863  14.584827   0.000597   0.002334 -11.736752  -4.782980   7.151000  -0.851479   0.000167   0.000523
 -2.146809   0.916776   5.248715   0.685405  13.422319  -2.622809   2.667887  -0.016037  -0.916170   0.790718  -0.646280   4.457461   0.501473   1.386233   2.518102   2.361685   0.073205   8.766436   7.431702  17.509890  47.873253   0.000008  20.642994  -0.000153   7.550891   3.434255   5.367184  -0.913475  -1.273736  -4.813090   3.294622 -18.193538 -45.741204  -0.001230 -26.731043  -0.000626   7.548864  -4.900664  -1.039997 -21.239107   1.155784  -5.669174  71.357784  -0.008693  -0.004922  -2.060281  -1.454508   9.127020  -1.664397  -0.000087  -0.000236  -2.516313  -7.915637  -1.118301  14.778555   0.000604   0.002401 -12.014206  -5.099405   6.974868  -0.920358   0.000019   0.000419
